<svg xmlns="http://www.w3.org/2000/svg" xmlns:xlink="http://www.w3.org/1999/xlink"><symbol id="icon_arrow1" viewBox="0 0 7.62 12.1">
	<path stroke-width="2" d="M0.51 0.55L6.51 6.12 0.54 11.55"/>
</symbol><symbol id="icon_arrow2" viewBox="0 0 5.62 9.06">
	<path stroke-width="2" d="M0.56 0.5L4.55 4.91 0.56 8.5"/>
</symbol><symbol id="icon_cart" viewBox="0 0 28 26">
	<ellipse cx="9.45" cy="21.25" rx="2.49" ry="2.5"/>
	<ellipse cx="22.39" cy="21.25" rx="2.49" ry="2.5"/>
	<path d="M6,5.75l21,.06-2.44,8.94-16.3.06L4.39.75H0"/>
</symbol><symbol id="icon_facebook" viewBox="0 0 50 50">
	<path d="M 30.140625 2 C 26.870375 2 24.045399 2.9969388 22.0625 4.9667969 C 20.079601 6.936655 19 9.823825 19 13.367188 L 19 18 L 13 18 A 1.0001 1.0001 0 0 0 12 19 L 12 27 A 1.0001 1.0001 0 0 0 13 28 L 19 28 L 19 47 A 1.0001 1.0001 0 0 0 20 48 L 28 48 A 1.0001 1.0001 0 0 0 29 47 L 29 28 L 36 28 A 1.0001 1.0001 0 0 0 36.992188 27.125 L 37.992188 19.125 A 1.0001 1.0001 0 0 0 37 18 L 29 18 L 29 14 C 29 12.883334 29.883334 12 31 12 L 37 12 A 1.0001 1.0001 0 0 0 38 11 L 38 3.3457031 A 1.0001 1.0001 0 0 0 37.130859 2.3554688 C 36.247185 2.2382213 33.057174 2 30.140625 2 z M 30.140625 4 C 32.578477 4 34.935105 4.195047 36 4.2949219 L 36 10 L 31 10 C 28.802666 10 27 11.802666 27 14 L 27 19 A 1.0001 1.0001 0 0 0 28 20 L 35.867188 20 L 35.117188 26 L 28 26 A 1.0001 1.0001 0 0 0 27 27 L 27 46 L 21 46 L 21 27 A 1.0001 1.0001 0 0 0 20 26 L 14 26 L 14 20 L 20 20 A 1.0001 1.0001 0 0 0 21 19 L 21 13.367188 C 21 10.22255 21.920305 7.9269075 23.472656 6.3847656 C 25.025007 4.8426237 27.269875 4 30.140625 4 z"/>
</symbol><symbol id="icon_heart" viewBox="0 0 30 25">
	<path d="M28.28,11.54c-.73,2-11.73,12-13.7,13.21,0,0-12.94-10.81-13.48-13.53a11.57,11.57,0,0,1,0-6A8.5,8.5,0,0,1,4.8,1.31a8.94,8.94,0,0,1,5.25-.15,39.28,39.28,0,0,1,4.53,3.13S18,1.48,19.82,1.05a7.1,7.1,0,0,1,4.8.26,5.06,5.06,0,0,1,3.77,3.78A12.86,12.86,0,0,1,28.28,11.54Z"/>
</symbol><symbol id="icon_heart_blue" viewBox="0 0 30 25">
	<path d="M28.28,11.54c-.73,2-11.73,12-13.7,13.21,0,0-12.94-10.81-13.48-13.53a11.57,11.57,0,0,1,0-6A8.5,8.5,0,0,1,4.8,1.31a8.94,8.94,0,0,1,5.25-.15,39.28,39.28,0,0,1,4.53,3.13S18,1.48,19.82,1.05a7.1,7.1,0,0,1,4.8.26,5.06,5.06,0,0,1,3.77,3.78A12.86,12.86,0,0,1,28.28,11.54Z"/>
</symbol><symbol id="icon_instagram" viewBox="0 0 32 32">
	<path d="M 11.46875 5 C 7.917969 5 5 7.914063 5 11.46875 L 5 20.53125 C 5 24.082031 7.914063 27 11.46875 27 L 20.53125 27 C 24.082031 27 27 24.085938 27 20.53125 L 27 11.46875 C 27 7.917969 24.085938 5 20.53125 5 Z M 11.46875 7 L 20.53125 7 C 23.003906 7 25 8.996094 25 11.46875 L 25 20.53125 C 25 23.003906 23.003906 25 20.53125 25 L 11.46875 25 C 8.996094 25 7 23.003906 7 20.53125 L 7 11.46875 C 7 8.996094 8.996094 7 11.46875 7 Z M 21.90625 9.1875 C 21.402344 9.1875 21 9.589844 21 10.09375 C 21 10.597656 21.402344 11 21.90625 11 C 22.410156 11 22.8125 10.597656 22.8125 10.09375 C 22.8125 9.589844 22.410156 9.1875 21.90625 9.1875 Z M 16 10 C 12.699219 10 10 12.699219 10 16 C 10 19.300781 12.699219 22 16 22 C 19.300781 22 22 19.300781 22 16 C 22 12.699219 19.300781 10 16 10 Z M 16 12 C 18.222656 12 20 13.777344 20 16 C 20 18.222656 18.222656 20 16 20 C 13.777344 20 12 18.222656 12 16 C 12 13.777344 13.777344 12 16 12 Z"/>
</symbol><symbol id="icon_login" viewBox="0 0 35 34">
	<path d="M10.9,9.9C10.8,2,23.1,2,22.9,9.9C23.1,17.7,10.8,17.7,10.9,9.9z"/>
	<path d="M14.9,28c1,0-7,0-9,0c-3.1-4.2,2.6-11.2,8-12.1c4.8-0.3,6.6-0.1,9.4,1.6"/>
	<path d="M26,25c2.3-0.8,3.2-1.9,3-3c-0.4-1.2-1.6-2.1-3-3c3,2,3,3,3,3s-10,0-9,0c-4,2-2,6,2,6"/>
</symbol><symbol id="icon_search" viewBox="0 0 30 30">
	<path d="M 13 3 C 7.4889971 3 3 7.4889971 3 13 C 3 18.511003 7.4889971 23 13 23 C 15.396508 23 17.597385 22.148986 19.322266 20.736328 L 25.292969 26.707031 A 1.0001 1.0001 0 1 0 26.707031 25.292969 L 20.736328 19.322266 C 22.148986 17.597385 23 15.396508 23 13 C 23 7.4889971 18.511003 3 13 3 z M 13 5 C 17.430123 5 21 8.5698774 21 13 C 21 17.430123 17.430123 21 13 21 C 8.5698774 21 5 17.430123 5 13 C 5 8.5698774 8.5698774 5 13 5 z"/>
</symbol><symbol id="icon_star" viewBox="0 0 16.95 16.78">
	<path stroke-width="2" d="M8.46 1.56L10.53 5.66 15.55 6.7 12.81 9.88 13.45 15.46 8.51 13.55 3.57 15.6 4.15 9.78 1.41 6.6 6.01 5.72 8.46 1.56z"/>
</symbol><symbol id="icon_star_full" viewBox="0 0 16.95 16.78">
	<path stroke-width="2" d="M8.46 1.56L10.53 5.66 15.55 6.7 12.81 9.88 13.45 15.46 8.51 13.55 3.57 15.6 4.15 9.78 1.41 6.6 6.01 5.72 8.46 1.56z"/>
</symbol><symbol id="icon_vk" viewBox="0 0 16 16">
	<path d="M 7.695313 3.019531 C 6.867188 3.011719 6.242188 3.050781 5.71875 3.320313 C 5.503906 3.429688 5.351563 3.570313 5.234375 3.734375 C 5.171875 3.816406 5.113281 3.890625 5.085938 4.0625 C 5.070313 4.144531 5.058594 4.28125 5.144531 4.429688 C 5.230469 4.582031 5.414063 4.683594 5.539063 4.703125 C 5.632813 4.714844 5.832031 4.796875 5.867188 4.84375 C 5.949219 4.960938 5.980469 5.046875 5.992188 5.09375 C 6.003906 5.140625 6 5.109375 6 5.109375 L 6 5.15625 C 6 5.15625 6.03125 5.648438 6.011719 6.15625 C 6 6.40625 5.976563 6.667969 5.9375 6.84375 C 5.898438 7.019531 5.800781 7.0625 5.941406 6.980469 C 5.84375 7.039063 5.878906 7.0625 5.757813 7 C 5.632813 6.941406 5.308594 6.667969 4.882813 5.902344 C 4.457031 5.132813 4.148438 4.734375 4.078125 4.648438 C 4.050781 4.570313 3.984375 4.410156 3.757813 4.234375 C 3.464844 4.007813 3.164063 4.003906 3.164063 4.003906 L 3.136719 4 L 0.953125 4 C 0.953125 4 0.828125 4.003906 0.683594 4.035156 C 0.539063 4.066406 0.332031 4.101563 0.136719 4.34375 C 0.136719 4.34375 0.132813 4.34375 0.132813 4.34375 C -0.0664063 4.597656 -0.03125 4.828125 -0.015625 4.96875 C 0.00390625 5.113281 0.046875 5.226563 0.046875 5.226563 L 0.0546875 5.25 L 0.0664063 5.273438 C 0.0664063 5.273438 1.734375 8.832031 3.726563 11 C 5.597656 13.039063 7.765625 13 7.765625 13 L 8.996094 13 L 9.023438 12.996094 C 9.023438 12.996094 9.417969 13.015625 9.75 12.644531 C 9.917969 12.453125 9.957031 12.273438 9.976563 12.140625 C 10 12.003906 10 11.894531 10 11.894531 L 10 11.925781 C 10 11.925781 10.015625 11.667969 10.085938 11.398438 C 10.121094 11.265625 10.171875 11.132813 10.21875 11.058594 C 10.242188 11.015625 10.242188 11.027344 10.25 11.015625 C 10.335938 11.078125 10.476563 11.222656 10.625 11.40625 C 10.929688 11.769531 11.273438 12.273438 11.753906 12.621094 C 12.101563 12.867188 12.429688 12.976563 12.679688 13.015625 C 12.847656 13.042969 12.96875 13.039063 13.050781 13.03125 L 14.75 13 L 14.765625 13 C 14.765625 13 15.117188 12.992188 15.46875 12.769531 C 15.640625 12.660156 15.839844 12.460938 15.90625 12.175781 C 15.976563 11.890625 15.898438 11.582031 15.734375 11.296875 C 15.789063 11.394531 15.722656 11.265625 15.671875 11.164063 C 15.621094 11.0625 15.542969 10.925781 15.425781 10.753906 C 15.199219 10.417969 14.824219 9.945313 14.203125 9.34375 C 13.910156 9.0625 13.722656 8.90625 13.605469 8.796875 C 13.640625 8.746094 13.644531 8.742188 13.777344 8.585938 C 13.988281 8.339844 14.296875 7.976563 14.6875 7.433594 C 15.15625 6.777344 15.496094 6.242188 15.714844 5.796875 C 15.933594 5.355469 16.109375 4.988281 15.914063 4.535156 C 15.808594 4.289063 15.621094 4.195313 15.484375 4.136719 C 15.34375 4.078125 15.21875 4.054688 15.101563 4.035156 C 14.871094 4 14.667969 4 14.667969 4 L 12.6875 4.015625 C 12.628906 4.003906 12.402344 3.960938 12.109375 4.148438 C 11.820313 4.328125 11.753906 4.519531 11.738281 4.578125 C 11.691406 4.644531 11.363281 5.109375 10.90625 5.921875 C 10.445313 6.742188 10.132813 6.964844 10.09375 6.984375 C 10.082031 6.972656 10.105469 6.976563 10.050781 6.945313 C 10.027344 6.925781 10.003906 6.910156 9.984375 6.699219 C 9.96875 6.488281 9.988281 6.15625 9.988281 5.765625 C 9.988281 4.925781 10.0625 4.488281 10.019531 4.070313 C 10 3.859375 9.914063 3.601563 9.726563 3.429688 C 9.539063 3.261719 9.335938 3.199219 9.125 3.144531 C 8.792969 3.0625 8.34375 3.027344 7.695313 3.019531 Z M 7.6875 4.019531 C 8.292969 4.027344 8.71875 4.074219 8.875 4.113281 C 9.007813 4.148438 9.027344 4.164063 9.023438 4.15625 C 9.023438 4.164063 9.023438 4.160156 9.023438 4.171875 C 9.039063 4.339844 8.988281 4.878906 8.988281 5.765625 C 8.988281 6.113281 8.960938 6.449219 8.988281 6.785156 C 9.015625 7.121094 9.136719 7.53125 9.492188 7.773438 L 9.496094 7.773438 C 9.453125 7.746094 9.945313 8.113281 10.414063 7.945313 C 10.882813 7.773438 11.253906 7.34375 11.78125 6.410156 C 12.242188 5.582031 12.582031 5.117188 12.582031 5.117188 L 12.613281 5.070313 L 12.636719 5.023438 C 12.636719 5.023438 12.628906 5.019531 12.636719 5.015625 L 14.667969 5 C 14.667969 5 14.808594 5 14.945313 5.023438 C 14.949219 5.023438 14.953125 5.023438 14.957031 5.023438 C 14.9375 5.03125 14.953125 5.082031 14.816406 5.359375 C 14.640625 5.714844 14.324219 6.222656 13.875 6.851563 C 13.503906 7.363281 13.226563 7.695313 13.019531 7.9375 C 12.8125 8.175781 12.65625 8.289063 12.554688 8.601563 C 12.503906 8.753906 12.515625 8.980469 12.589844 9.132813 C 12.660156 9.28125 12.746094 9.363281 12.832031 9.445313 C 13.003906 9.609375 13.207031 9.769531 13.503906 10.0625 C 14.085938 10.625 14.414063 11.039063 14.597656 11.3125 C 14.691406 11.453125 14.746094 11.550781 14.78125 11.621094 C 14.816406 11.691406 14.792969 11.664063 14.871094 11.796875 C 14.9375 11.917969 14.925781 11.933594 14.925781 11.925781 C 14.859375 11.964844 14.691406 12 14.6875 12 L 12.988281 12.03125 L 12.941406 12.042969 C 12.941406 12.042969 12.945313 12.046875 12.839844 12.03125 C 12.730469 12.011719 12.558594 11.964844 12.339844 11.808594 C 12.070313 11.617188 11.730469 11.171875 11.394531 10.765625 C 11.230469 10.566406 11.0625 10.371094 10.851563 10.214844 C 10.640625 10.058594 10.308594 9.914063 9.96875 10.027344 C 9.675781 10.121094 9.484375 10.335938 9.363281 10.535156 C 9.242188 10.738281 9.171875 10.949219 9.117188 11.140625 C 9.015625 11.527344 9 11.875 9 11.875 L 9 11.90625 C 9 11.90625 9 11.929688 8.992188 11.964844 C 8.972656 11.972656 8.945313 11.992188 8.929688 12 L 7.734375 12 C 7.734375 12 6.082031 12.085938 4.460938 10.328125 C 2.726563 8.433594 1.183594 5.265625 1.054688 5 L 3.066406 5 C 3.085938 5.007813 3.15625 5.035156 3.148438 5.03125 C 3.101563 4.992188 3.171875 5.078125 3.171875 5.078125 L 3.203125 5.152344 L 3.257813 5.214844 C 3.257813 5.214844 3.566406 5.589844 4.007813 6.386719 C 4.480469 7.242188 4.878906 7.6875 5.324219 7.902344 C 5.769531 8.117188 6.238281 7.964844 6.4375 7.851563 C 6.808594 7.636719 6.851563 7.335938 6.914063 7.058594 C 6.976563 6.78125 6.996094 6.484375 7.007813 6.195313 C 7.03125 5.640625 7 5.167969 7 5.132813 C 6.996094 5.121094 6.996094 4.984375 6.957031 4.835938 C 6.914063 4.683594 6.835938 4.484375 6.6875 4.273438 C 6.625 4.1875 6.566406 4.230469 6.5 4.167969 C 6.777344 4.089844 7.074219 4.011719 7.6875 4.019531 Z"/>
</symbol></svg>